solid Cone
   facet normal 0.000000e+000 -1.000000e+000 0.000000e+000
      outer loop
         vertex 2.500000e+001 1.070211e-015 0.000000e+000
         vertex 2.840417e+001 1.070211e-015 2.328511e-001
         vertex 2.500000e+001 1.070211e-015 2.500000e+001
      endloop
   endfacet
   facet normal 0.000000e+000 -1.000000e+000 0.000000e+000
      outer loop
         vertex 1.503997e+001 1.070211e-015 2.069717e+000
         vertex 1.825508e+001 1.070211e-015 9.270683e-001
         vertex 2.500000e+001 1.070211e-015 2.500000e+001
      endloop
   endfacet
   facet normal 0.000000e+000 -1.000000e+000 0.000000e+000
      outer loop
         vertex 2.500000e+001 1.070211e-015 2.500000e+001
         vertex 1.825508e+001 1.070211e-015 9.270683e-001
         vertex 2.159583e+001 1.070211e-015 2.328511e-001
      endloop
   endfacet
   facet normal 0.000000e+000 -1.000000e+000 0.000000e+000
      outer loop
         vertex 2.500000e+001 1.070211e-015 2.500000e+001
         vertex 2.159583e+001 1.070211e-015 2.328511e-001
         vertex 2.500000e+001 1.070211e-015 0.000000e+000
      endloop
   endfacet
   facet normal 0.000000e+000 -1.000000e+000 0.000000e+000
      outer loop
         vertex 6.729102e+000 1.070211e-015 7.936172e+000
         vertex 9.222802e+000 1.070211e-015 5.607218e+000
         vertex 2.500000e+001 1.070211e-015 2.500000e+001
      endloop
   endfacet
   facet normal 0.000000e+000 -1.000000e+000 0.000000e+000
      outer loop
         vertex 2.500000e+001 1.070211e-015 2.500000e+001
         vertex 9.222802e+000 1.070211e-015 5.607218e+000
         vertex 1.201040e+001 1.070211e-015 3.639515e+000
      endloop
   endfacet
   facet normal 0.000000e+000 -1.000000e+000 0.000000e+000
      outer loop
         vertex 2.500000e+001 1.070211e-015 2.500000e+001
         vertex 1.201040e+001 1.070211e-015 3.639515e+000
         vertex 1.503997e+001 1.070211e-015 2.069717e+000
      endloop
   endfacet
   facet normal 0.000000e+000 -1.000000e+000 0.000000e+000
      outer loop
         vertex 1.443477e+000 1.070211e-015 1.662801e+001
         vertex 2.802869e+000 1.070211e-015 1.349837e+001
         vertex 2.500000e+001 1.070211e-015 2.500000e+001
      endloop
   endfacet
   facet normal 0.000000e+000 -1.000000e+000 0.000000e+000
      outer loop
         vertex 2.500000e+001 1.070211e-015 2.500000e+001
         vertex 2.802869e+000 1.070211e-015 1.349837e+001
         vertex 4.575754e+000 1.070211e-015 1.058299e+001
      endloop
   endfacet
   facet normal 0.000000e+000 -1.000000e+000 0.000000e+000
      outer loop
         vertex 2.500000e+001 1.070211e-015 2.500000e+001
         vertex 4.575754e+000 1.070211e-015 1.058299e+001
         vertex 6.729102e+000 1.070211e-015 7.936172e+000
      endloop
   endfacet
   facet normal 0.000000e+000 -1.000000e+000 0.000000e+000
      outer loop
         vertex 5.828030e-002 1.070211e-015 2.670606e+001
         vertex 5.828030e-002 1.070211e-015 2.329394e+001
         vertex 2.500000e+001 1.070211e-015 2.500000e+001
      endloop
   endfacet
   facet normal 0.000000e+000 -1.000000e+000 0.000000e+000
      outer loop
         vertex 2.500000e+001 1.070211e-015 2.500000e+001
         vertex 5.828030e-002 1.070211e-015 2.329394e+001
         vertex 5.228985e-001 1.070211e-015 1.991360e+001
      endloop
   endfacet
   facet normal 0.000000e+000 -1.000000e+000 0.000000e+000
      outer loop
         vertex 2.500000e+001 1.070211e-015 2.500000e+001
         vertex 5.228985e-001 1.070211e-015 1.991360e+001
         vertex 1.443477e+000 1.070211e-015 1.662801e+001
      endloop
   endfacet
   facet normal 0.000000e+000 -1.000000e+000 0.000000e+000
      outer loop
         vertex 2.802869e+000 1.070211e-015 3.650163e+001
         vertex 1.443477e+000 1.070211e-015 3.337199e+001
         vertex 2.500000e+001 1.070211e-015 2.500000e+001
      endloop
   endfacet
   facet normal 0.000000e+000 -1.000000e+000 0.000000e+000
      outer loop
         vertex 2.500000e+001 1.070211e-015 2.500000e+001
         vertex 1.443477e+000 1.070211e-015 3.337199e+001
         vertex 5.228985e-001 1.070211e-015 3.008640e+001
      endloop
   endfacet
   facet normal 0.000000e+000 -1.000000e+000 0.000000e+000
      outer loop
         vertex 2.500000e+001 1.070211e-015 2.500000e+001
         vertex 5.228985e-001 1.070211e-015 3.008640e+001
         vertex 5.828030e-002 1.070211e-015 2.670606e+001
      endloop
   endfacet
   facet normal 0.000000e+000 -1.000000e+000 0.000000e+000
      outer loop
         vertex 9.222802e+000 1.070211e-015 4.439278e+001
         vertex 6.729102e+000 1.070211e-015 4.206383e+001
         vertex 2.500000e+001 1.070211e-015 2.500000e+001
      endloop
   endfacet
   facet normal 0.000000e+000 -1.000000e+000 0.000000e+000
      outer loop
         vertex 2.500000e+001 1.070211e-015 2.500000e+001
         vertex 6.729102e+000 1.070211e-015 4.206383e+001
         vertex 4.575754e+000 1.070211e-015 3.941701e+001
      endloop
   endfacet
   facet normal 0.000000e+000 -1.000000e+000 0.000000e+000
      outer loop
         vertex 2.500000e+001 1.070211e-015 2.500000e+001
         vertex 4.575754e+000 1.070211e-015 3.941701e+001
         vertex 2.802869e+000 1.070211e-015 3.650163e+001
      endloop
   endfacet
   facet normal 0.000000e+000 -1.000000e+000 0.000000e+000
      outer loop
         vertex 1.825508e+001 1.070211e-015 4.907293e+001
         vertex 1.503997e+001 1.070211e-015 4.793029e+001
         vertex 2.500000e+001 1.070211e-015 2.500000e+001
      endloop
   endfacet
   facet normal 0.000000e+000 -1.000000e+000 0.000000e+000
      outer loop
         vertex 2.500000e+001 1.070211e-015 2.500000e+001
         vertex 1.503997e+001 1.070211e-015 4.793029e+001
         vertex 1.201040e+001 1.070211e-015 4.636049e+001
      endloop
   endfacet
   facet normal 0.000000e+000 -1.000000e+000 0.000000e+000
      outer loop
         vertex 2.500000e+001 1.070211e-015 2.500000e+001
         vertex 1.201040e+001 1.070211e-015 4.636049e+001
         vertex 9.222802e+000 1.070211e-015 4.439278e+001
      endloop
   endfacet
   facet normal 0.000000e+000 -1.000000e+000 0.000000e+000
      outer loop
         vertex 2.840417e+001 1.070211e-015 4.976715e+001
         vertex 2.500000e+001 1.070211e-015 5.000000e+001
         vertex 2.500000e+001 1.070211e-015 2.500000e+001
      endloop
   endfacet
   facet normal 0.000000e+000 -1.000000e+000 0.000000e+000
      outer loop
         vertex 2.500000e+001 1.070211e-015 2.500000e+001
         vertex 2.500000e+001 1.070211e-015 5.000000e+001
         vertex 2.159583e+001 1.070211e-015 4.976715e+001
      endloop
   endfacet
   facet normal 0.000000e+000 -1.000000e+000 0.000000e+000
      outer loop
         vertex 2.500000e+001 1.070211e-015 2.500000e+001
         vertex 2.159583e+001 1.070211e-015 4.976715e+001
         vertex 1.825508e+001 1.070211e-015 4.907293e+001
      endloop
   endfacet
   facet normal 0.000000e+000 -1.000000e+000 0.000000e+000
      outer loop
         vertex 3.798960e+001 1.070211e-015 4.636049e+001
         vertex 3.496003e+001 1.070211e-015 4.793029e+001
         vertex 2.500000e+001 1.070211e-015 2.500000e+001
      endloop
   endfacet
   facet normal 0.000000e+000 -1.000000e+000 0.000000e+000
      outer loop
         vertex 2.500000e+001 1.070211e-015 2.500000e+001
         vertex 3.496003e+001 1.070211e-015 4.793029e+001
         vertex 3.174492e+001 1.070211e-015 4.907293e+001
      endloop
   endfacet
   facet normal 0.000000e+000 -1.000000e+000 0.000000e+000
      outer loop
         vertex 2.500000e+001 1.070211e-015 2.500000e+001
         vertex 3.174492e+001 1.070211e-015 4.907293e+001
         vertex 2.840417e+001 1.070211e-015 4.976715e+001
      endloop
   endfacet
   facet normal 0.000000e+000 -1.000000e+000 0.000000e+000
      outer loop
         vertex 4.542424e+001 1.070211e-015 3.941701e+001
         vertex 4.327090e+001 1.070211e-015 4.206383e+001
         vertex 2.500000e+001 1.070211e-015 2.500000e+001
      endloop
   endfacet
   facet normal 0.000000e+000 -1.000000e+000 0.000000e+000
      outer loop
         vertex 2.500000e+001 1.070211e-015 2.500000e+001
         vertex 4.327090e+001 1.070211e-015 4.206383e+001
         vertex 4.077720e+001 1.070211e-015 4.439278e+001
      endloop
   endfacet
   facet normal 0.000000e+000 -1.000000e+000 0.000000e+000
      outer loop
         vertex 2.500000e+001 1.070211e-015 2.500000e+001
         vertex 4.077720e+001 1.070211e-015 4.439278e+001
         vertex 3.798960e+001 1.070211e-015 4.636049e+001
      endloop
   endfacet
   facet normal 0.000000e+000 -1.000000e+000 0.000000e+000
      outer loop
         vertex 4.947710e+001 1.070211e-015 3.008640e+001
         vertex 4.855652e+001 1.070211e-015 3.337199e+001
         vertex 2.500000e+001 1.070211e-015 2.500000e+001
      endloop
   endfacet
   facet normal 0.000000e+000 -1.000000e+000 0.000000e+000
      outer loop
         vertex 2.500000e+001 1.070211e-015 2.500000e+001
         vertex 4.855652e+001 1.070211e-015 3.337199e+001
         vertex 4.719713e+001 1.070211e-015 3.650163e+001
      endloop
   endfacet
   facet normal 0.000000e+000 -1.000000e+000 0.000000e+000
      outer loop
         vertex 2.500000e+001 1.070211e-015 2.500000e+001
         vertex 4.719713e+001 1.070211e-015 3.650163e+001
         vertex 4.542424e+001 1.070211e-015 3.941701e+001
      endloop
   endfacet
   facet normal 0.000000e+000 -1.000000e+000 0.000000e+000
      outer loop
         vertex 4.947710e+001 1.070211e-015 1.991360e+001
         vertex 4.994172e+001 1.070211e-015 2.329394e+001
         vertex 2.500000e+001 1.070211e-015 2.500000e+001
      endloop
   endfacet
   facet normal 0.000000e+000 -1.000000e+000 0.000000e+000
      outer loop
         vertex 2.500000e+001 1.070211e-015 2.500000e+001
         vertex 4.994172e+001 1.070211e-015 2.329394e+001
         vertex 4.994172e+001 1.070211e-015 2.670606e+001
      endloop
   endfacet
   facet normal 0.000000e+000 -1.000000e+000 0.000000e+000
      outer loop
         vertex 2.500000e+001 1.070211e-015 2.500000e+001
         vertex 4.994172e+001 1.070211e-015 2.670606e+001
         vertex 4.947710e+001 1.070211e-015 3.008640e+001
      endloop
   endfacet
   facet normal 0.000000e+000 -1.000000e+000 0.000000e+000
      outer loop
         vertex 4.542424e+001 1.070211e-015 1.058299e+001
         vertex 4.719713e+001 1.070211e-015 1.349837e+001
         vertex 2.500000e+001 1.070211e-015 2.500000e+001
      endloop
   endfacet
   facet normal 0.000000e+000 -1.000000e+000 0.000000e+000
      outer loop
         vertex 2.500000e+001 1.070211e-015 2.500000e+001
         vertex 4.719713e+001 1.070211e-015 1.349837e+001
         vertex 4.855652e+001 1.070211e-015 1.662801e+001
      endloop
   endfacet
   facet normal 0.000000e+000 -1.000000e+000 0.000000e+000
      outer loop
         vertex 2.500000e+001 1.070211e-015 2.500000e+001
         vertex 4.855652e+001 1.070211e-015 1.662801e+001
         vertex 4.947710e+001 1.070211e-015 1.991360e+001
      endloop
   endfacet
   facet normal 0.000000e+000 -1.000000e+000 0.000000e+000
      outer loop
         vertex 3.798960e+001 1.070211e-015 3.639515e+000
         vertex 4.077720e+001 1.070211e-015 5.607218e+000
         vertex 2.500000e+001 1.070211e-015 2.500000e+001
      endloop
   endfacet
   facet normal 0.000000e+000 -1.000000e+000 0.000000e+000
      outer loop
         vertex 2.500000e+001 1.070211e-015 2.500000e+001
         vertex 4.077720e+001 1.070211e-015 5.607218e+000
         vertex 4.327090e+001 1.070211e-015 7.936172e+000
      endloop
   endfacet
   facet normal 0.000000e+000 -1.000000e+000 0.000000e+000
      outer loop
         vertex 2.500000e+001 1.070211e-015 2.500000e+001
         vertex 4.327090e+001 1.070211e-015 7.936172e+000
         vertex 4.542424e+001 1.070211e-015 1.058299e+001
      endloop
   endfacet
   facet normal 0.000000e+000 -1.000000e+000 0.000000e+000
      outer loop
         vertex 2.840417e+001 1.070211e-015 2.328511e-001
         vertex 3.174492e+001 1.070211e-015 9.270683e-001
         vertex 2.500000e+001 1.070211e-015 2.500000e+001
      endloop
   endfacet
   facet normal 0.000000e+000 -1.000000e+000 0.000000e+000
      outer loop
         vertex 2.500000e+001 1.070211e-015 2.500000e+001
         vertex 3.174492e+001 1.070211e-015 9.270683e-001
         vertex 3.496003e+001 1.070211e-015 2.069717e+000
      endloop
   endfacet
   facet normal 0.000000e+000 -1.000000e+000 0.000000e+000
      outer loop
         vertex 2.500000e+001 1.070211e-015 2.500000e+001
         vertex 3.496003e+001 1.070211e-015 2.069717e+000
         vertex 3.798960e+001 1.070211e-015 3.639515e+000
      endloop
   endfacet
   facet normal 1.756570e-001 2.430095e-001 -9.539869e-001
      outer loop
         vertex 3.174492e+001 0.000000e+000 9.270683e-001
         vertex 2.840417e+001 0.000000e+000 2.328511e-001
         vertex 2.500000e+001 1.000000e+002 2.500000e+001
      endloop
   endfacet
   facet normal 3.039221e-001 2.430095e-001 -9.211828e-001
      outer loop
         vertex 3.174492e+001 0.000000e+000 9.270683e-001
         vertex 2.500000e+001 1.000000e+002 2.500000e+001
         vertex 3.496003e+001 0.000000e+000 2.069717e+000
      endloop
   endfacet
   facet normal 4.265258e-001 2.430095e-001 -8.712187e-001
      outer loop
         vertex 3.798960e+001 0.000000e+000 3.639515e+000
         vertex 3.496003e+001 0.000000e+000 2.069717e+000
         vertex 2.500000e+001 1.000000e+002 2.500000e+001
      endloop
   endfacet
   facet normal 5.411840e-001 2.430095e-001 -8.050256e-001
      outer loop
         vertex 4.077720e+001 0.000000e+000 5.607218e+000
         vertex 3.798960e+001 0.000000e+000 3.639515e+000
         vertex 2.500000e+001 1.000000e+002 2.500000e+001
      endloop
   endfacet
   facet normal 6.457610e-001 2.430095e-001 -7.238364e-001
      outer loop
         vertex 4.327090e+001 0.000000e+000 7.936172e+000
         vertex 4.077720e+001 0.000000e+000 5.607218e+000
         vertex 2.500000e+001 1.000000e+002 2.500000e+001
      endloop
   endfacet
   facet normal 7.383088e-001 2.430095e-001 -6.291634e-001
      outer loop
         vertex 4.542424e+001 0.000000e+000 1.058299e+001
         vertex 4.327090e+001 0.000000e+000 7.936172e+000
         vertex 2.500000e+001 1.000000e+002 2.500000e+001
      endloop
   endfacet
   facet normal 8.171032e-001 2.430095e-001 -5.227703e-001
      outer loop
         vertex 4.719713e+001 0.000000e+000 1.349837e+001
         vertex 4.542424e+001 0.000000e+000 1.058299e+001
         vertex 2.500000e+001 1.000000e+002 2.500000e+001
      endloop
   endfacet
   facet normal 8.806764e-001 2.430095e-001 -4.066390e-001
      outer loop
         vertex 4.855652e+001 0.000000e+000 1.662801e+001
         vertex 4.719713e+001 0.000000e+000 1.349837e+001
         vertex 2.500000e+001 1.000000e+002 2.500000e+001
      endloop
   endfacet
   facet normal 9.278445e-001 2.430095e-001 -2.829328e-001
      outer loop
         vertex 4.947710e+001 0.000000e+000 1.991360e+001
         vertex 4.855652e+001 0.000000e+000 1.662801e+001
         vertex 2.500000e+001 1.000000e+002 2.500000e+001
      endloop
   endfacet
   facet normal 9.577285e-001 2.430095e-001 -1.539560e-001
      outer loop
         vertex 4.994172e+001 0.000000e+000 2.329394e+001
         vertex 4.947710e+001 0.000000e+000 1.991360e+001
         vertex 2.500000e+001 1.000000e+002 2.500000e+001
      endloop
   endfacet
   facet normal 9.697719e-001 2.430095e-001 -2.211140e-002
      outer loop
         vertex 4.994172e+001 0.000000e+000 2.670606e+001
         vertex 4.994172e+001 0.000000e+000 2.329394e+001
         vertex 2.500000e+001 1.000000e+002 2.500000e+001
      endloop
   endfacet
   facet normal 9.637502e-001 2.430095e-001 1.101451e-001
      outer loop
         vertex 4.947710e+001 0.000000e+000 3.008640e+001
         vertex 4.994172e+001 0.000000e+000 2.670606e+001
         vertex 2.500000e+001 1.000000e+002 2.500000e+001
      endloop
   endfacet
   facet normal 9.397757e-001 2.430095e-001 2.403499e-001
      outer loop
         vertex 4.855652e+001 0.000000e+000 3.337199e+001
         vertex 4.947710e+001 0.000000e+000 3.008640e+001
         vertex 2.500000e+001 1.000000e+002 2.500000e+001
      endloop
   endfacet
   facet normal 8.982949e-001 2.430095e-001 3.660773e-001
      outer loop
         vertex 4.719713e+001 0.000000e+000 3.650163e+001
         vertex 4.855652e+001 0.000000e+000 3.337199e+001
         vertex 2.500000e+001 1.000000e+002 2.500000e+001
      endloop
   endfacet
   facet normal 8.400806e-001 2.430095e-001 4.849855e-001
      outer loop
         vertex 4.542424e+001 0.000000e+000 3.941701e+001
         vertex 4.719713e+001 0.000000e+000 3.650163e+001
         vertex 2.500000e+001 1.000000e+002 2.500000e+001
      endloop
   endfacet
   facet normal 7.662173e-001 2.430095e-001 5.948592e-001
      outer loop
         vertex 4.327090e+001 0.000000e+000 4.206383e+001
         vertex 4.542424e+001 0.000000e+000 3.941701e+001
         vertex 2.500000e+001 1.000000e+002 2.500000e+001
      endloop
   endfacet
   facet normal 6.780807e-001 2.430095e-001 6.936519e-001
      outer loop
         vertex 4.077720e+001 0.000000e+000 4.439278e+001
         vertex 4.327090e+001 0.000000e+000 4.206383e+001
         vertex 2.500000e+001 1.000000e+002 2.500000e+001
      endloop
   endfacet
   facet normal 5.773127e-001 2.430095e-001 7.795233e-001
      outer loop
         vertex 3.798960e+001 0.000000e+000 4.636049e+001
         vertex 4.077720e+001 0.000000e+000 4.439278e+001
         vertex 2.500000e+001 1.000000e+002 2.500000e+001
      endloop
   endfacet
   facet normal 4.657905e-001 2.430095e-001 8.508734e-001
      outer loop
         vertex 3.496003e+001 0.000000e+000 4.793029e+001
         vertex 3.798960e+001 0.000000e+000 4.636049e+001
         vertex 2.500000e+001 1.000000e+002 2.500000e+001
      endloop
   endfacet
   facet normal 3.455915e-001 2.430095e-001 9.063734e-001
      outer loop
         vertex 3.174492e+001 0.000000e+000 4.907293e+001
         vertex 3.496003e+001 0.000000e+000 4.793029e+001
         vertex 2.500000e+001 1.000000e+002 2.500000e+001
      endloop
   endfacet
   facet normal 2.189548e-001 2.430095e-001 9.449894e-001
      outer loop
         vertex 2.840417e+001 0.000000e+000 4.976715e+001
         vertex 3.174492e+001 0.000000e+000 4.907293e+001
         vertex 2.500000e+001 1.000000e+002 2.500000e+001
      endloop
   endfacet
   facet normal 8.823944e-002 2.430095e-001 9.660022e-001
      outer loop
         vertex 2.500000e+001 0.000000e+000 5.000000e+001
         vertex 2.840417e+001 0.000000e+000 4.976715e+001
         vertex 2.500000e+001 1.000000e+002 2.500000e+001
      endloop
   endfacet
   facet normal -4.411972e-002 2.430095e-001 9.690200e-001
      outer loop
         vertex 2.159583e+001 0.000000e+000 4.976715e+001
         vertex 2.500000e+001 0.000000e+000 5.000000e+001
         vertex 2.500000e+001 1.000000e+002 2.500000e+001
      endloop
   endfacet
   facet normal -1.756570e-001 2.430095e-001 9.539869e-001
      outer loop
         vertex 1.825508e+001 0.000000e+000 4.907293e+001
         vertex 2.159583e+001 0.000000e+000 4.976715e+001
         vertex 2.500000e+001 1.000000e+002 2.500000e+001
      endloop
   endfacet
   facet normal -3.039221e-001 2.430095e-001 9.211828e-001
      outer loop
         vertex 1.503997e+001 0.000000e+000 4.793029e+001
         vertex 1.825508e+001 0.000000e+000 4.907293e+001
         vertex 2.500000e+001 1.000000e+002 2.500000e+001
      endloop
   endfacet
   facet normal -4.265258e-001 2.430095e-001 8.712187e-001
      outer loop
         vertex 1.201040e+001 0.000000e+000 4.636049e+001
         vertex 1.503997e+001 0.000000e+000 4.793029e+001
         vertex 2.500000e+001 1.000000e+002 2.500000e+001
      endloop
   endfacet
   facet normal -5.411840e-001 2.430095e-001 8.050256e-001
      outer loop
         vertex 9.222802e+000 0.000000e+000 4.439278e+001
         vertex 1.201040e+001 0.000000e+000 4.636049e+001
         vertex 2.500000e+001 1.000000e+002 2.500000e+001
      endloop
   endfacet
   facet normal -6.457610e-001 2.430095e-001 7.238364e-001
      outer loop
         vertex 6.729102e+000 0.000000e+000 4.206383e+001
         vertex 9.222802e+000 0.000000e+000 4.439278e+001
         vertex 2.500000e+001 1.000000e+002 2.500000e+001
      endloop
   endfacet
   facet normal -7.383088e-001 2.430095e-001 6.291634e-001
      outer loop
         vertex 4.575754e+000 0.000000e+000 3.941701e+001
         vertex 6.729102e+000 0.000000e+000 4.206383e+001
         vertex 2.500000e+001 1.000000e+002 2.500000e+001
      endloop
   endfacet
   facet normal -8.171032e-001 2.430095e-001 5.227703e-001
      outer loop
         vertex 2.802869e+000 0.000000e+000 3.650163e+001
         vertex 4.575754e+000 0.000000e+000 3.941701e+001
         vertex 2.500000e+001 1.000000e+002 2.500000e+001
      endloop
   endfacet
   facet normal -8.806764e-001 2.430095e-001 4.066390e-001
      outer loop
         vertex 1.443477e+000 0.000000e+000 3.337199e+001
         vertex 2.802869e+000 0.000000e+000 3.650163e+001
         vertex 2.500000e+001 1.000000e+002 2.500000e+001
      endloop
   endfacet
   facet normal -9.278445e-001 2.430095e-001 2.829328e-001
      outer loop
         vertex 5.228985e-001 0.000000e+000 3.008640e+001
         vertex 1.443477e+000 0.000000e+000 3.337199e+001
         vertex 2.500000e+001 1.000000e+002 2.500000e+001
      endloop
   endfacet
   facet normal -9.577285e-001 2.430095e-001 1.539560e-001
      outer loop
         vertex 5.828030e-002 0.000000e+000 2.670606e+001
         vertex 5.228985e-001 0.000000e+000 3.008640e+001
         vertex 2.500000e+001 1.000000e+002 2.500000e+001
      endloop
   endfacet
   facet normal -9.697719e-001 2.430095e-001 2.211140e-002
      outer loop
         vertex 5.828030e-002 0.000000e+000 2.329394e+001
         vertex 5.828030e-002 0.000000e+000 2.670606e+001
         vertex 2.500000e+001 1.000000e+002 2.500000e+001
      endloop
   endfacet
   facet normal -9.637502e-001 2.430095e-001 -1.101451e-001
      outer loop
         vertex 5.228985e-001 0.000000e+000 1.991360e+001
         vertex 5.828030e-002 0.000000e+000 2.329394e+001
         vertex 2.500000e+001 1.000000e+002 2.500000e+001
      endloop
   endfacet
   facet normal -9.397757e-001 2.430095e-001 -2.403499e-001
      outer loop
         vertex 1.443477e+000 0.000000e+000 1.662801e+001
         vertex 5.228985e-001 0.000000e+000 1.991360e+001
         vertex 2.500000e+001 1.000000e+002 2.500000e+001
      endloop
   endfacet
   facet normal -8.982949e-001 2.430095e-001 -3.660773e-001
      outer loop
         vertex 2.802869e+000 0.000000e+000 1.349837e+001
         vertex 1.443477e+000 0.000000e+000 1.662801e+001
         vertex 2.500000e+001 1.000000e+002 2.500000e+001
      endloop
   endfacet
   facet normal -8.400806e-001 2.430095e-001 -4.849855e-001
      outer loop
         vertex 4.575754e+000 0.000000e+000 1.058299e+001
         vertex 2.802869e+000 0.000000e+000 1.349837e+001
         vertex 2.500000e+001 1.000000e+002 2.500000e+001
      endloop
   endfacet
   facet normal -7.662173e-001 2.430095e-001 -5.948592e-001
      outer loop
         vertex 6.729102e+000 0.000000e+000 7.936172e+000
         vertex 4.575754e+000 0.000000e+000 1.058299e+001
         vertex 2.500000e+001 1.000000e+002 2.500000e+001
      endloop
   endfacet
   facet normal -6.780807e-001 2.430095e-001 -6.936519e-001
      outer loop
         vertex 9.222802e+000 0.000000e+000 5.607218e+000
         vertex 6.729102e+000 0.000000e+000 7.936172e+000
         vertex 2.500000e+001 1.000000e+002 2.500000e+001
      endloop
   endfacet
   facet normal -5.773127e-001 2.430095e-001 -7.795233e-001
      outer loop
         vertex 1.201040e+001 0.000000e+000 3.639515e+000
         vertex 9.222802e+000 0.000000e+000 5.607218e+000
         vertex 2.500000e+001 1.000000e+002 2.500000e+001
      endloop
   endfacet
   facet normal -4.657905e-001 2.430095e-001 -8.508734e-001
      outer loop
         vertex 1.503997e+001 0.000000e+000 2.069717e+000
         vertex 1.201040e+001 0.000000e+000 3.639515e+000
         vertex 2.500000e+001 1.000000e+002 2.500000e+001
      endloop
   endfacet
   facet normal -3.455915e-001 2.430095e-001 -9.063734e-001
      outer loop
         vertex 1.825508e+001 0.000000e+000 9.270683e-001
         vertex 1.503997e+001 0.000000e+000 2.069717e+000
         vertex 2.500000e+001 1.000000e+002 2.500000e+001
      endloop
   endfacet
   facet normal -2.189548e-001 2.430095e-001 -9.449894e-001
      outer loop
         vertex 2.159583e+001 0.000000e+000 2.328511e-001
         vertex 1.825508e+001 0.000000e+000 9.270683e-001
         vertex 2.500000e+001 1.000000e+002 2.500000e+001
      endloop
   endfacet
   facet normal -8.823944e-002 2.430095e-001 -9.660022e-001
      outer loop
         vertex 2.500000e+001 0.000000e+000 0.000000e+000
         vertex 2.159583e+001 0.000000e+000 2.328511e-001
         vertex 2.500000e+001 1.000000e+002 2.500000e+001
      endloop
   endfacet
   facet normal 4.411972e-002 2.430095e-001 -9.690200e-001
      outer loop
         vertex 2.840417e+001 0.000000e+000 2.328511e-001
         vertex 2.500000e+001 0.000000e+000 0.000000e+000
         vertex 2.500000e+001 1.000000e+002 2.500000e+001
      endloop
   endfacet
endsolid